HIERARCHY
ROOT reference
{
  OFFSET 0 0 0
  CHANNELS 6 Xposition Yposition Zposition Zrotation Xrotation Yrotation
  JOINT Hips
  {
    OFFSET 349.773 89.4622 219.413
    CHANNELS 3 Zrotation Xrotation Yrotation
    JOINT RightUpLeg
    {
      OFFSET -9.25229 -1.56476 -0.00486621
      CHANNELS 3 Zrotation Xrotation Yrotation
      JOINT RightLeg
      {
        OFFSET 0.0546168 -41.8841 0.068862
        CHANNELS 3 Zrotation Xrotation Yrotation
        JOINT RightFoot
        {
          OFFSET -1.63893 -40.8901 3.53979
          CHANNELS 3 Zrotation Xrotation Yrotation
          End Site
          {
            OFFSET 0 -7.69 17.5
          }
        }
      }
    }
    JOINT LeftUpLeg
    {
      OFFSET 9.30241 -1.63853 -0.0284428
      CHANNELS 3 Zrotation Xrotation Yrotation
      JOINT LeftLeg
      {
        OFFSET 0.0539686 -41.842 -0.0517406
        CHANNELS 3 Zrotation Xrotation Yrotation
        JOINT LeftFoot
        {
          OFFSET 1.12518 -42.5382 -2.5849
          CHANNELS 3 Zrotation Xrotation Yrotation
          End Site
          {
            OFFSET 0 -7.69 17.5
          }
        }
      }
    }
    JOINT Spine
    {
      OFFSET 0.0144198 14.3187 0.0981135
      CHANNELS 3 Zrotation Xrotation Yrotation
      JOINT Spine1
      {
        OFFSET 0.0112165 9.7169 0.0514987
        CHANNELS 3 Zrotation Xrotation Yrotation
        JOINT Spine2
        {
          OFFSET 0.0255827 10.1205 -0.00638435
          CHANNELS 3 Zrotation Xrotation Yrotation
          JOINT Spine3
          {
            OFFSET -0.00190646 9.72552 0.024249
            CHANNELS 3 Zrotation Xrotation Yrotation
            JOINT Neck
            {
              OFFSET -0.136438 10.3681 0.0553958
              CHANNELS 3 Zrotation Xrotation Yrotation
              JOINT Head
              {
                OFFSET 0.0264476 9.5071 0.170402
                CHANNELS 3 Zrotation Xrotation Yrotation
                End Site
                {
                  OFFSET 0 15.95 0
                }
              }
            }
            JOINT RightShoulder
            {
              OFFSET -3.1747 6.92483 0.00547946
              CHANNELS 3 Zrotation Xrotation Yrotation
              JOINT RightArm
              {
                OFFSET -12.7755 -0.0136287 0.0362428
                CHANNELS 3 Zrotation Xrotation Yrotation
                JOINT RightForeArm
                {
                  OFFSET -26.5642 -0.108975 -0.0233747
                  CHANNELS 3 Zrotation Xrotation Yrotation
                  JOINT RightHand
                  {
                    OFFSET -25.905 -0.185223 0.00356295
                    CHANNELS 3 Zrotation Xrotation Yrotation
                    JOINT RightHandThumb1
                    {
                      OFFSET -2.48905 0.190105 3.12053
                      CHANNELS 3 Zrotation Xrotation Yrotation
                      JOINT RightHandThumb2
                      {
                        OFFSET -3.68274 0 0
                        CHANNELS 3 Zrotation Xrotation Yrotation
                        JOINT RightHandThumb3
                        {
                          OFFSET -2.55832 0 0
                          CHANNELS 3 Zrotation Xrotation Yrotation
                          End Site
                          {
                            OFFSET -2.194 0 0
                          }
                        }
                      }
                    }
                    JOINT RightInHandIndex
                    {
                      OFFSET -3.22368 0.508421 1.97842
                      CHANNELS 3 Zrotation Xrotation Yrotation
                      JOINT RightHandIndex1
                      {
                        OFFSET -5.21684 -0.091368 0.999158
                        CHANNELS 3 Zrotation Xrotation Yrotation
                        JOINT RightHandIndex2
                        {
                          OFFSET -3.61937 0 0
                          CHANNELS 3 Zrotation Xrotation Yrotation
                          JOINT RightHandIndex3
                          {
                            OFFSET -2.0521 0 0
                            CHANNELS 3 Zrotation Xrotation Yrotation
                            End Site
                            {
                              OFFSET -1.805 0 0
                            }
                          }
                        }
                      }
                    }
                    JOINT RightInHandMiddle
                    {
                      OFFSET -3.38211 0.517263 0.756737
                      CHANNELS 3 Zrotation Xrotation Yrotation
                      JOINT RightHandMiddle1
                      {
                        OFFSET -5.17411 -0.084 0.313895
                        CHANNELS 3 Zrotation Xrotation Yrotation
                        JOINT RightHandMiddle2
                        {
                          OFFSET -3.94947 0 0
                          CHANNELS 3 Zrotation Xrotation Yrotation
                          JOINT RightHandMiddle3
                          {
                            OFFSET -2.47579 0 0
                            CHANNELS 3 Zrotation Xrotation Yrotation
                            End Site
                            {
                              OFFSET -1.975 0 0
                            }
                          }
                        }
                      }
                    }
                    JOINT RightInHandRing
                    {
                      OFFSET -3.36516 0.537895 -0.128947
                      CHANNELS 3 Zrotation Xrotation Yrotation
                      JOINT RightHandRing1
                      {
                        OFFSET -4.63474 -0.022105 -0.478947
                        CHANNELS 3 Zrotation Xrotation Yrotation
                        JOINT RightHandRing2
                        {
                          OFFSET -3.44238 0 0
                          CHANNELS 3 Zrotation Xrotation Yrotation
                          JOINT RightHandRing3
                          {
                            OFFSET -2.3881 0 0
                            CHANNELS 3 Zrotation Xrotation Yrotation
                            End Site
                            {
                              OFFSET -1.857 0 0
                            }
                          }
                        }
                      }
                    }
                    JOINT RightInHandPinky
                    {
                      OFFSET -3.16105 0.469368 -1.20179
                      CHANNELS 3 Zrotation Xrotation Yrotation
                      JOINT RightHandPinky1
                      {
                        OFFSET -4.14105 -0.022105 -1.09053
                        CHANNELS 3 Zrotation Xrotation Yrotation
                        JOINT RightHandPinky2
                        {
                          OFFSET -2.75653 0 0
                          CHANNELS 3 Zrotation Xrotation Yrotation
                          JOINT RightHandPinky3
                          {
                            OFFSET -1.74189 0 0
                            CHANNELS 3 Zrotation Xrotation Yrotation
                            End Site
                            {
                              OFFSET -1.645 0 0
                            }
                          }
                        }
                      }
                    }
                  }
                }
              }
            }
            JOINT LeftShoulder
            {
              OFFSET 3.23079 6.93624 -0.032633
              CHANNELS 3 Zrotation Xrotation Yrotation
              JOINT LeftArm
              {
                OFFSET 12.8235 -0.00564763 -0.0637926
                CHANNELS 3 Zrotation Xrotation Yrotation
                JOINT LeftForeArm
                {
                  OFFSET 26.4641 -0.00020372 -0.0407631
                  CHANNELS 3 Zrotation Xrotation Yrotation
                  JOINT LeftHand
                  {
                    OFFSET 25.9912 -0.0207868 -0.0178714
                    CHANNELS 3 Zrotation Xrotation Yrotation
                    JOINT LeftHandThumb1
                    {
                      OFFSET 2.48905 0.190105 3.12053
                      CHANNELS 3 Zrotation Xrotation Yrotation
                      JOINT LeftHandThumb2
                      {
                        OFFSET 3.68274 0 0
                        CHANNELS 3 Zrotation Xrotation Yrotation
                        JOINT LeftHandThumb3
                        {
                          OFFSET 2.55832 0 0
                          CHANNELS 3 Zrotation Xrotation Yrotation
                          End Site
                          {
                            OFFSET 2.194 0 0
                          }
                        }
                      }
                    }
                    JOINT LeftInHandIndex
                    {
                      OFFSET 3.22368 0.508421 1.97842
                      CHANNELS 3 Zrotation Xrotation Yrotation
                      JOINT LeftHandIndex1
                      {
                        OFFSET 5.21684 -0.091368 0.999158
                        CHANNELS 3 Zrotation Xrotation Yrotation
                        JOINT LeftHandIndex2
                        {
                          OFFSET 3.61937 0 0
                          CHANNELS 3 Zrotation Xrotation Yrotation
                          JOINT LeftHandIndex3
                          {
                            OFFSET 2.0521 0 0
                            CHANNELS 3 Zrotation Xrotation Yrotation
                            End Site
                            {
                              OFFSET 1.805 0 0
                            }
                          }
                        }
                      }
                    }
                    JOINT LeftInHandMiddle
                    {
                      OFFSET 3.38211 0.517263 0.756737
                      CHANNELS 3 Zrotation Xrotation Yrotation
                      JOINT LeftHandMiddle1
                      {
                        OFFSET 5.17411 -0.084 0.313895
                        CHANNELS 3 Zrotation Xrotation Yrotation
                        JOINT LeftHandMiddle2
                        {
                          OFFSET 3.94947 0 0
                          CHANNELS 3 Zrotation Xrotation Yrotation
                          JOINT LeftHandMiddle3
                          {
                            OFFSET 2.47579 0 0
                            CHANNELS 3 Zrotation Xrotation Yrotation
                            End Site
                            {
                              OFFSET 1.975 0 0
                            }
                          }
                        }
                      }
                    }
                    JOINT LeftInHandRing
                    {
                      OFFSET 3.36516 0.537895 -0.128947
                      CHANNELS 3 Zrotation Xrotation Yrotation
                      JOINT LeftHandRing1
                      {
                        OFFSET 4.63474 -0.022105 -0.478947
                        CHANNELS 3 Zrotation Xrotation Yrotation
                        JOINT LeftHandRing2
                        {
                          OFFSET 3.44238 0 0
                          CHANNELS 3 Zrotation Xrotation Yrotation
                          JOINT LeftHandRing3
                          {
                            OFFSET 2.3881 0 0
                            CHANNELS 3 Zrotation Xrotation Yrotation
                            End Site
                            {
                              OFFSET 1.857 0 0
                            }
                          }
                        }
                      }
                    }
                    JOINT LeftInHandPinky
                    {
                      OFFSET 3.16105 0.469368 -1.20179
                      CHANNELS 3 Zrotation Xrotation Yrotation
                      JOINT LeftHandPinky1
                      {
                        OFFSET 4.14105 -0.022105 -1.09053
                        CHANNELS 3 Zrotation Xrotation Yrotation
                        JOINT LeftHandPinky2
                        {
                          OFFSET 2.75653 0 0
                          CHANNELS 3 Zrotation Xrotation Yrotation
                          JOINT LeftHandPinky3
                          {
                            OFFSET 1.74189 0 0
                            CHANNELS 3 Zrotation Xrotation Yrotation
                            End Site
                            {
                              OFFSET 1.645 0 0
                            }
                          }
                        }
                      }
                    }
                  }
                }
              }
            }
          }
        }
      }
    }
  }
}
MOTION
Frames: 2
Frame Time: 0.00833333
3.000000000000000000e+02 0.000000000000000000e+00 0.000000000000000000e+00 0.000000000000000000e+00 0.000000000000000000e+00 0.000000000000000000e+00 -1.311672288277652455e-02 7.469134583846344377e-02 4.773122418182668830e-02 1.762490044285049129e-02 -1.424224823270905200e-03 -8.140604036331414162e-02 -3.001779715066893277e-03 2.606203894943349975e-02 4.663969218660893659e-03 -1.995371994131311943e-02 1.510377587905226485e-02 1.874538038851538899e-02 2.673006536451309062e-02 -1.100940009407407570e-02 -6.877585163539433333e-02 5.197521924766663505e-03 1.126459275761270556e-02 -1.770851751857857809e-03 1.404578360097453495e-02 1.175038442311880042e-03 1.353147438308721640e-02 8.079697086668873041e-02 9.692662505617184732e-02 1.070483005384022523e-01 1.743998473475008235e-02 -4.410759020188440536e-03 3.289217993718148575e-02 3.033187284630549027e-02 5.134122403858409900e-02 3.941500963508137723e-02 -5.027433942261905209e-03 -2.647278348114799010e-03 -5.696402166616596971e-03 -2.612494957296282450e-02 -3.728636375122060947e-02 -1.280029053159962571e-01 -5.418375003970472836e-02 1.868655989600126813e-02 -1.149382557981055708e-01 -1.666624535607215754e-02 -9.411294332662797912e-02 -1.754270487866659567e-01 -7.842553487526558731e-02 -2.316625079217725369e-01 -1.497043648026964435e-01 -5.744978192497847413e-02 1.601026198808428169e-01 1.399429865162261921e-02 4.674590364002530543e-03 -4.581597930522843254e-02 -1.905037041416828003e-02 0.000000000000000000e+00 0.000000000000000000e+00 0.000000000000000000e+00 5.137740071306325780e-15 -2.672152012510258225e-16 0.000000000000000000e+00 -1.587151203075705112e-15 1.817564012394720953e-15 0.000000000000000000e+00 3.430508114077910101e-15 8.441088020433083480e-16 3.544767950810824948e-15 0.000000000000000000e+00 0.000000000000000000e+00 0.000000000000000000e+00 0.000000000000000000e+00 -2.525065028025906287e-15 -2.493525086304460994e-16 0.000000000000000000e+00 -1.174884586527139887e-15 -1.460129141710606890e-15 3.430508114077910101e-15 8.441088020433083480e-16 3.544767950810824948e-15 0.000000000000000000e+00 -1.929707162364531748e-15 3.134724007610003353e-15 0.000000000000000000e+00 -2.448608558366417398e-15 3.727815901127581061e-15 0.000000000000000000e+00 -3.433239101016220002e-15 8.058087950050863708e-15 3.430508114077910101e-15 8.441088020433083480e-16 3.544767950810824948e-15 0.000000000000000000e+00 0.000000000000000000e+00 0.000000000000000000e+00 0.000000000000000000e+00 1.020195619706473625e-15 3.528310867923115090e-16 0.000000000000000000e+00 1.131189873258179511e-15 5.101140978126612844e-15 3.430508114077910101e-15 8.441088020433083480e-16 3.544767950810824948e-15 0.000000000000000000e+00 0.000000000000000000e+00 0.000000000000000000e+00 0.000000000000000000e+00 -3.297752218994965951e-15 2.558245560324053132e-15 0.000000000000000000e+00 6.005612984562770130e-16 2.377409378178051807e-15 -3.021425354519483020e-02 -3.892732718422568794e-02 -1.430699426521821471e-01 9.875925440324942461e-02 -1.039863614151500110e-01 -1.403141802089694357e-01 3.019760760487552598e-02 -4.375011794364610379e-02 -9.245106812448332378e-02 -4.850320950779286010e-03 1.118754663580214942e-01 -1.369142375241876319e-01 0.000000000000000000e+00 0.000000000000000000e+00 0.000000000000000000e+00 -3.789799543489373427e-15 3.279311397323834914e-15 0.000000000000000000e+00 -3.640123702198081826e-15 5.435852673625805563e-15 0.000000000000000000e+00 -9.117669506741082476e-16 -2.396523623598986462e-15 3.039034611936782264e-16 0.000000000000000000e+00 0.000000000000000000e+00 0.000000000000000000e+00 0.000000000000000000e+00 2.110629111435282231e-15 4.280912591044503021e-15 0.000000000000000000e+00 4.549649392940868124e-15 2.228721607115180892e-16 -9.117669506741082476e-16 -2.396523623598986462e-15 3.039034611936782264e-16 0.000000000000000000e+00 -8.696636879629652500e-16 4.195523783046203045e-15 0.000000000000000000e+00 -8.832962238968863593e-16 4.972302140364529042e-15 0.000000000000000000e+00 1.154074918924486504e-15 -1.181317153030641098e-17 -9.117669506741082476e-16 -2.396523623598986462e-15 3.039034611936782264e-16 0.000000000000000000e+00 0.000000000000000000e+00 0.000000000000000000e+00 0.000000000000000000e+00 -4.130414772001043433e-15 6.795640780072763719e-15 0.000000000000000000e+00 -3.247454380454709232e-15 5.094987136727845303e-15 -9.117669506741082476e-16 -2.396523623598986462e-15 3.039034611936782264e-16 0.000000000000000000e+00 0.000000000000000000e+00 0.000000000000000000e+00 0.000000000000000000e+00 5.869296732016622656e-15 5.970891780862063208e-15 0.000000000000000000e+00 -1.996711946209336885e-15 6.272505314993949331e-15
3.000000000000000000e+02 0.000000000000000000e+00 0.000000000000000000e+00 0.000000000000000000e+00 0.000000000000000000e+00 0.000000000000000000e+00 -6.603534132461726797e-03 1.956991250898829360e-01 7.856511864888282570e-02 9.245944889958730706e-02 1.825811817899579761e-02 -1.774475926961375793e-01 -1.284979585753655805e-02 1.791591313538499694e-02 3.685635517941434486e-02 -1.778612612225064296e-02 1.538328623318839170e-02 1.905717351159041256e-02 1.079638234256453527e-01 -8.519715776179671504e-03 -9.697083282302908225e-02 4.042871074353053540e-02 2.315951743385529296e-02 -3.370198387286188479e-02 7.925291008598416356e-03 3.102659036506209746e-03 8.678935765233318153e-03 1.380296327440962145e-01 1.078139838025574532e-01 5.581409285834770112e-02 3.139211920887019502e-02 2.685337935057659654e-03 1.937517981138733858e-02 5.338079225076924200e-02 6.216756271505760600e-02 1.782663411976332865e-02 -4.948729524404509202e-03 -3.649635056877284598e-03 -3.793494011874062617e-03 -1.714111764623103482e-02 -5.361157023401639382e-02 -4.382547336700992613e-02 -5.777293282521388240e-02 8.475211724278427020e-03 -8.511928661886625225e-02 2.131865316720823328e-02 -5.053319401651958781e-02 -1.542717481708363036e-01 -1.873445342669749769e-01 -3.838386204978059824e-01 -2.781574537710490569e-01 7.106695155692677179e-02 3.461504231906478157e-01 -2.782741772151682558e-02 -4.589472436465549289e-03 -3.720896100232940450e-03 -4.734787456953898355e-02 0.000000000000000000e+00 0.000000000000000000e+00 0.000000000000000000e+00 1.099599657930843505e-15 -7.096586752765392532e-16 0.000000000000000000e+00 -5.180744572356850355e-15 -1.585755798002916895e-15 0.000000000000000000e+00 3.588765711909579934e-15 -7.347198594880339671e-16 6.208832987528841751e-15 0.000000000000000000e+00 0.000000000000000000e+00 0.000000000000000000e+00 0.000000000000000000e+00 -6.083427986723715408e-15 3.172330665571240112e-15 0.000000000000000000e+00 8.395603274620555135e-16 -6.128432676749590524e-15 3.588765711909579934e-15 -7.347198594880339671e-16 6.208832987528841751e-15 0.000000000000000000e+00 -4.378780897570268540e-15 8.912025890640267645e-15 0.000000000000000000e+00 -9.190891014691862604e-16 8.375740662704852363e-15 0.000000000000000000e+00 -3.210984106007885489e-16 1.048731113461408629e-14 3.588765711909579934e-15 -7.347198594880339671e-16 6.208832987528841751e-15 0.000000000000000000e+00 0.000000000000000000e+00 0.000000000000000000e+00 0.000000000000000000e+00 7.601607792678535870e-15 7.747401824423959661e-15 0.000000000000000000e+00 2.850488392313114554e-17 1.419735886914160675e-14 3.588765711909579934e-15 -7.347198594880339671e-16 6.208832987528841751e-15 0.000000000000000000e+00 0.000000000000000000e+00 0.000000000000000000e+00 0.000000000000000000e+00 1.635330635331754245e-15 2.137688280076810742e-15 0.000000000000000000e+00 1.903566505864966384e-15 4.148784708084351752e-15 -3.360008696571940845e-02 3.022657037717426179e-03 -7.578929048734477092e-02 1.271597651364750614e-01 -1.202807974970651894e-01 -1.645366928088587422e-01 1.204297768138453371e-02 -1.195946495377165839e-02 -5.995618686392033270e-02 1.546685257561017206e-02 -1.536418402778095237e-02 -2.296599298771456049e-02 0.000000000000000000e+00 0.000000000000000000e+00 0.000000000000000000e+00 -2.554892481471781276e-15 4.151641290031101940e-15 0.000000000000000000e+00 -1.078111053765260601e-15 5.409532591091914929e-15 0.000000000000000000e+00 -1.703369060195471725e-15 -9.045743705633289511e-16 3.753225131526507126e-15 0.000000000000000000e+00 0.000000000000000000e+00 0.000000000000000000e+00 0.000000000000000000e+00 -9.284691033809612461e-16 4.590888786094787633e-15 0.000000000000000000e+00 6.784370825387348933e-15 7.220852479447979720e-16 -1.703369060195471725e-15 -9.045743705633289511e-16 3.753225131526507126e-15 0.000000000000000000e+00 -1.253332501120407053e-15 -4.509696672424298839e-16 0.000000000000000000e+00 -1.781898189296046121e-15 5.776034057872222996e-15 0.000000000000000000e+00 -1.053423838158916351e-15 1.322889155888845317e-15 -1.703369060195471725e-15 -9.045743705633289511e-16 3.753225131526507126e-15 0.000000000000000000e+00 0.000000000000000000e+00 0.000000000000000000e+00 0.000000000000000000e+00 -6.100425515452659065e-15 6.665135325724999581e-15 0.000000000000000000e+00 -5.166731740768422235e-15 1.119032279003745774e-14 -1.703369060195471725e-15 -9.045743705633289511e-16 3.753225131526507126e-15 0.000000000000000000e+00 0.000000000000000000e+00 0.000000000000000000e+00 0.000000000000000000e+00 7.778755884954456062e-15 4.180346403342487309e-15 0.000000000000000000e+00 -5.642083877131859184e-15 1.604902666126041770e-15
